<?xml version="1.0" encoding="UTF-8"?>
<svg width="20px" height="19px" viewBox="0 0 20 19" version="1.1" xmlns="http://www.w3.org/2000/svg" xmlns:xlink="http://www.w3.org/1999/xlink">
    <title>F2CE1BD8-681B-471D-8B0C-3A70AC0F4FC4</title>
    <g id="Components" stroke="none" stroke-width="1" fill="none" fill-rule="evenodd">
        <g id="07-Navigation" transform="translate(-232.000000, -4506.000000)" stroke="#1D1D1D">
            <g id="Group-8" transform="translate(153.000000, 4438.000000)">
                <g id="Nav/tablet/cart/off/375" transform="translate(68.000000, 66.000000)">
                    <g id="Group-17" transform="translate(12.500000, 3.000000)">
                        <path d="M7.08333333,17 C7.92178048,17 8.60119048,16.3282695 8.60119048,15.5 C8.60119048,14.6717305 7.92178048,14 7.08333333,14 C6.24488619,14 5.56547619,14.6717305 5.56547619,15.5 C5.56547619,16.3282695 6.24488619,17 7.08333333,17 L7.08333333,17 Z" id="Stroke-224"></path>
                        <path d="M13.1547619,17 C13.9932091,17 14.672619,16.3282695 14.672619,15.5 C14.672619,14.6717305 13.9932091,14 13.1547619,14 C12.3163148,14 11.6369048,14.6717305 11.6369048,15.5 C11.6369048,16.3282695 12.3163148,17 13.1547619,17 L13.1547619,17 Z" id="Stroke-226"></path>
                        <path d="M3.31799521,2.5 L17.4258584,2.5 C17.6325538,2.5 17.7532258,2.52763158 17.6926907,2.71907895 L15.5425,9.58394737 C15.4831597,9.77184211 15.321069,10 15.1792895,10 L5.56456409,10 C5.42318278,10 5.26188862,9.71460526 5.20135352,9.52315789 L3.05116288,2.78697368 C2.9914243,2.59907895 3.11010495,2.5 3.31799521,2.5 L3.31799521,2.5 Z" id="Stroke-228" stroke-width="1.25"></path>
                        <line x1="3.03571429" y1="2.5" x2="2.5297619" y2="0.5" id="Stroke-230" stroke-linecap="round"></line>
                        <path d="M5.56547619,10 C5.42539166,10 5.26511847,10.1578206 5.20496452,10.3600282 L4.04761905,13.5" id="Stroke-232" stroke-linecap="round"></path>
                        <line x1="-9.64975802e-14" y1="-2.39399144e-14" x2="2.02380952" y2="-2.39399144e-14" id="Stroke-234" stroke-width="1.25" stroke-linecap="round"></line>
                        <line x1="4.04761905" y1="13.5" x2="15.6845238" y2="13.5" id="Stroke-236" stroke-width="1.25" stroke-linecap="round"></line>
                    </g>
                </g>
            </g>
        </g>
    </g>
</svg>