<?xml version="1.0" encoding="UTF-8"?>
<svg width="21px" height="19px" viewBox="0 0 21 19" version="1.1" xmlns="http://www.w3.org/2000/svg" xmlns:xlink="http://www.w3.org/1999/xlink">
    <title>36B868E3-24BB-4A9E-9492-2797A373708A</title>
    <g id="Components" stroke="none" stroke-width="1" fill="none" fill-rule="evenodd" stroke-linecap="round" stroke-linejoin="round">
        <g id="07-Navigation" transform="translate(-470.000000, -4506.000000)" stroke="#1D1D1D" stroke-width="1.25">
            <g id="Group-8" transform="translate(153.000000, 4438.000000)">
                <g id="Nav/tablet/messages/off/375" transform="translate(292.000000, 59.000000)">
                    <g id="Group-22-Copy" transform="translate(26.000000, 10.000000)">
                        <g id="Group-21-Copy" transform="translate(0.000000, 3.176471)">
                            <path d="M4.73356401,10.8619917 L0.364120309,10.8619917 C0.163125898,10.8619917 0,10.569151 0,10.3673039 L0,0.1222116 C0,-0.0796354592 0.163125898,0.0294125046 0.364120309,0.0294125046 L14.9289327,0.0294125046 C15.1299271,0.0294125046 15.293053,-0.0796354592 15.293053,0.1222116 L15.293053,10.3673039 C15.293053,10.569151 15.1299271,10.8619917 14.9289327,10.8619917 L9.83124834,10.8619917" id="Stroke-360"></path>
                            <line x1="7.28240618" y1="14.0212412" x2="9.69470322" y2="11.0942783" id="Stroke-362"></line>
                            <line x1="7.28240618" y1="14.0212412" x2="4.87010913" y2="11.0942783" id="Stroke-364"></line>
                        </g>
                        <path d="M3.17647059,1.51644005 L3.17647059,0.131044631 C3.17647059,-0.0853912343 3.34588235,0.0315383386 3.55462185,0.0315383386 L18.6806723,0.0315383386 C18.8894118,0.0315383386 19.0588235,-0.0853912343 19.0588235,0.131044631 L19.0588235,11.1166167 C19.0588235,11.3330526 18.8894118,11.6470588 18.6806723,11.6470588 L17.6611498,11.6470588" id="Stroke-360"></path>
                    </g>
                </g>
            </g>
        </g>
    </g>
</svg>