<?xml version="1.0" encoding="UTF-8"?>
<svg width="15px" height="18px" viewBox="0 0 15 18" version="1.1" xmlns="http://www.w3.org/2000/svg" xmlns:xlink="http://www.w3.org/1999/xlink">
    <title>92B29974-39BB-4235-8066-1CB662CDF633</title>
    <g id="Components" stroke="none" stroke-width="1" fill="none" fill-rule="evenodd" stroke-linecap="round" stroke-linejoin="round">
        <g id="07-Navigation" transform="translate(-178.000000, -4506.000000)" stroke="#1D1D1D" stroke-width="1.25">
            <g id="Group-8" transform="translate(153.000000, 4438.000000)">
                <g id="Nav/tablet/shop/off/375" transform="translate(11.000000, 67.000000)">
                    <g id="Icon" transform="translate(15.000000, 2.000000)">
                        <path d="M10.075,16 L2.925,16 C1.84791176,16 0.975,15.3211792 0.975,14.3741415 L0,4.43613208 C0,4.27829245 0.145676471,4.22641509 0.325,4.22641509 L12.675,4.22641509 C12.8543235,4.22641509 13,4.32281132 13,4.48101887 L12.025,14.3899623 C12.025,15.337 11.1520882,16 10.075,16 L10.075,16 Z" id="Stroke-448"></path>
                        <path d="M3.4047619,4.22641509 L3.4047619,3.13042473 C3.4047619,1.40173103 4.7372619,0 6.5,0 C8.2627381,0 9.5952381,1.40173103 9.5952381,3.13042473 L9.5952381,4.22641509" id="Stroke-449"></path>
                    </g>
                </g>
            </g>
        </g>
    </g>
</svg>