<?xml version="1.0" encoding="UTF-8"?>
<svg width="88px" height="24px" viewBox="0 0 88 24" version="1.1" xmlns="http://www.w3.org/2000/svg" xmlns:xlink="http://www.w3.org/1999/xlink">
    <title>torch_vector_logo copy</title>
    <g id="Symbols" stroke="none" stroke-width="1" fill="none" fill-rule="evenodd">
        <g id="navbar/desktop/1280/profile" transform="translate(-24.000000, -44.000000)" fill="#FFFFFF" fill-rule="nonzero">
            <g id="torch_vector_logo-copy" transform="translate(24.000000, 44.000000)">
                <path d="M5.31273165,0 C5.64045218,0.177807114 5.96516609,0.331906612 6.25079408,0.560092408 C6.45524358,0.72011881 6.6927658,0.841620338 6.87917564,1.02831781 C7.0715987,1.22094218 7.26101515,1.41949346 7.46546466,1.60322747 C7.89240333,1.98551277 8.21110402,2.45373817 8.51777828,2.92789047 C8.99883594,3.67468035 9.38368206,4.47481236 9.64826377,5.3164327 C9.77454141,5.71353525 9.87676616,6.12545506 9.93990497,6.54626523 C9.99402396,6.90484291 10.0451363,7.26638404 10.1142884,7.61903482 C10.1924602,8.03391808 10.1894536,8.4458379 10.1654008,8.85183081 C10.1443545,9.22226229 10.3999164,9.28153133 10.6945642,9.14521254 C10.9711723,9.01482066 11.1605888,8.78959832 11.3349722,8.55548562 C11.7017786,8.0576257 11.8881885,7.47678913 12.0776049,6.90187946 C12.2189156,6.46921548 12.2880677,6.00988044 12.4233651,5.57425301 C12.4774841,5.40533625 12.4955238,5.24530985 12.4985304,5.07639309 C12.4985304,5.02305096 12.4955238,4.96970883 12.5767022,4.96378192 C12.624808,4.96081847 12.6428477,4.98748954 12.6669006,5.02305096 C12.8863831,5.38162864 13.1509648,5.72242561 13.319335,6.10174745 C13.5748969,6.68851092 13.8875844,7.26045714 14.0018356,7.9035262 C14.0349083,8.08429677 14.0980471,8.28284804 14.176219,8.43991099 C14.2694239,8.62660846 14.1521661,8.8459039 14.3205363,8.9940765 C14.2724305,9.22226229 14.4408007,9.42377702 14.407728,9.65196282 C14.3836751,9.81495267 14.5129593,9.9423811 14.4979263,10.1083344 C14.4828932,10.2594705 14.4408007,10.4283872 14.5730915,10.564706 C14.5881246,10.5795233 14.5760981,10.6180481 14.5760981,10.6447192 C14.5159659,11.2611172 14.6753163,11.8686248 14.6662964,12.4850228 C14.6572766,13.0599325 14.5430254,13.6259518 14.5610651,14.2038249 C14.5670783,14.3994128 14.5550519,14.6453793 14.4738734,14.8113326 C14.3836751,14.99803 14.5069461,15.2202889 14.3295561,15.3654981 C14.3866817,15.5818301 14.2934768,15.7951986 14.2333446,15.9789326 C14.0469347,16.5508788 13.8785645,17.1317154 13.6320225,17.6888444 C13.4546325,18.0918738 13.2742359,18.5008302 13.0547533,18.8771886 C12.7270328,19.4402444 12.3752594,19.9914465 11.9934198,20.5278313 C11.3500052,21.4346475 10.5322072,22.1725471 9.75650174,22.9548984 C9.72643564,22.9845329 9.70238276,23.0230578 9.66630343,23.037875 C9.63623733,23.0526923 9.58813156,23.0556557 9.55505885,23.0438019 C9.50394647,23.0260212 9.50995969,22.9548984 9.52799936,22.9400811 C9.67231665,22.8096892 9.68133648,22.6200283 9.75349513,22.4600019 C10.0270967,21.837677 10.294685,21.2094252 10.5021411,20.5663561 C10.6675047,20.0507155 10.8358749,19.529148 10.9501261,18.9927632 C11.0132649,18.7023449 11.0282979,18.3852555 11.181635,18.112618 C11.1245095,17.8162728 11.289873,17.5465987 11.2718334,17.2502535 C11.2447739,16.8027722 11.2628135,16.355291 11.2658201,15.9048463 C11.2658201,15.863358 11.2598069,15.8189062 11.2177144,15.8070524 C11.166602,15.7951986 11.1275161,15.8070524 11.09745,15.8722483 C10.9801922,16.1122879 10.8719542,16.3523275 10.7065906,16.571623 C10.4059296,16.9657621 10.0481429,17.3273032 9.62421089,17.5377083 C9.39871511,17.6503195 9.18223917,17.7807114 8.92667729,17.8547977 C8.76732694,17.9022129 8.62601625,17.9199936 8.47267912,17.9140667 C8.38849404,17.6858809 8.57490388,17.5051103 8.54784438,17.2976687 C8.73124761,17.0754098 8.72222778,16.7849915 8.76432033,16.5330981 C8.84549881,16.0589458 8.97778966,15.587757 8.95373678,15.0958239 C8.92667729,14.5950006 8.96876983,14.0882503 8.93870373,13.5874269 C8.92066407,13.2970086 8.83046576,13.0095538 8.75830711,12.7250624 C8.65608236,12.3190695 8.49673201,11.9367842 8.28626928,11.5722796 C8.08482639,11.2225923 7.87737028,10.8847588 7.59174229,10.5913771 C7.20088295,10.1913111 6.79198394,9.81791612 6.28988001,9.5541689 C6.25079408,9.53342474 6.21772136,9.52749784 6.17863543,9.52453439 C6.11850322,9.55713236 6.12752305,9.61640139 6.13353627,9.66678008 C6.18464865,10.1764938 6.06438424,10.6773172 6.03131152,11.181104 C5.99823881,11.7085984 5.91104711,12.2538736 5.70359099,12.7517335 C5.50515471,13.2288493 5.2706391,13.6881843 5.03311689,14.1504828 C4.71140958,14.781698 4.41976838,15.4218037 4.21231226,16.0974707 C4.14316022,16.3197296 4.0770148,16.5419885 4.06799497,16.7701743 C4.0499553,17.1643134 4.02590242,17.5614159 4.07400819,17.9496281 C4.11910734,18.3022789 4.18825938,18.6549297 4.27545108,19.0016535 C4.36264278,19.345414 4.47689397,19.6832475 4.59114517,20.0181175 C4.76552857,20.5278313 5.00605739,21.0168008 5.25560605,21.4998435 C5.53522082,22.0421552 5.83588185,22.5755765 6.19066187,23.0734364 C6.23576103,23.1356689 6.26883374,23.2038283 6.29589323,23.2749512 C6.31092628,23.3105126 6.29889984,23.3579278 6.2568073,23.378672 C6.23576103,23.3905258 6.19366848,23.3934892 6.17562882,23.378672 C5.83588185,23.0941806 5.43900928,22.8926659 5.08122265,22.6318821 C4.70840297,22.362208 4.37767583,22.0421552 3.98681649,21.7902618 C3.86354546,21.7102486 3.77034054,21.5828201 3.66210257,21.4761359 C3.27124322,21.0908871 2.87737727,20.7115653 2.49253114,20.3233531 C1.93630823,19.7632607 1.47329024,19.1409358 1.07040445,18.4593418 C0.769743414,17.9525916 0.499148483,17.4458413 0.324765083,16.8857489 C0.21652711,16.5419885 0.147375072,16.1952646 0.0722098134,15.8455773 C-0.017988497,15.430694 0.0421437099,15.0217376 0.00305777539,14.6127813 C-0.0149818867,14.4231204 0.051163541,14.2542036 0.0872428651,14.0763965 C0.123322189,13.8985894 0.0571767617,13.7207823 0.156394903,13.5311213 C0.231560162,13.3859122 0.2135205,13.1784706 0.237573383,13.0006635 C0.291692369,12.6035609 0.451042717,12.2420198 0.556274079,11.8626979 C0.7366707,11.213702 1.04033835,10.6150847 1.35903904,10.0312847 C1.59355465,9.60454759 1.85813636,9.19559123 2.16481062,8.80737903 C2.57972284,8.28284804 3.00064829,7.76128051 3.42458035,7.24267643 C3.80942648,6.77148758 4.1642065,6.27362766 4.50696008,5.76984084 C4.72944924,5.44682458 4.84670705,5.06453929 4.96095824,4.6941078 C5.01207061,4.52815449 5.02109045,4.32367631 5.08723587,4.17550372 C5.16240113,4.00362351 5.05716977,3.79618188 5.22253334,3.65986309 C5.17743418,3.35166409 5.35482419,3.06717271 5.30972504,2.75601026 C5.26462588,2.43892091 5.42096962,2.13664882 5.39391013,1.81066911 C5.36685064,1.48765285 5.36985725,1.15870969 5.39391013,0.832729982 C5.39992335,0.566019312 5.20750029,0.311162449 5.31273165,0 Z" id="Path"></path>
                <path d="M74.3111111,3.89811739 C75.3988574,3.89811739 76.4749701,3.89811739 77.5801668,3.89811739 C77.5801668,6.22731782 77.5801668,8.55359212 77.5801668,10.9413152 C77.8739165,10.6223669 78.1560325,10.3882764 78.4730495,10.1892995 C79.0169226,9.84986823 79.5840631,9.58651643 80.2064634,9.43728374 C80.5031215,9.36413046 80.8055964,9.32901688 81.099346,9.264642 C81.4279967,9.19148872 81.747922,9.22075003 82.0707558,9.20611937 C82.4023149,9.19148872 82.7455075,9.1622274 83.0712497,9.21489777 C83.4406181,9.27634652 83.812895,9.33779528 84.1735381,9.443136 C84.5312729,9.54847672 84.8831908,9.66259584 85.2060246,9.84986823 C85.5230415,10.0342145 85.8196996,10.2478221 86.1134493,10.4760603 C86.506085,10.7833041 86.7649337,11.1783318 87.0441413,11.5733595 C87.3407994,11.9888701 87.521121,12.4482727 87.66945,12.9252321 C87.7974202,13.3348905 87.8672221,13.7591795 87.9312071,14.1893208 C87.9893754,14.5843485 87.986467,14.973524 87.9951922,15.3656255 C88.0039175,15.754801 87.9981006,16.1439764 87.9981006,16.5331519 C87.9981006,18.7979774 87.9981006,21.0657291 87.9981006,23.3305546 C87.6752668,23.3861511 85.6830042,23.4037079 84.7145028,23.3539637 C84.7145028,23.2252139 84.7145028,23.093538 84.7145028,22.9647882 C84.7145028,20.4044235 84.7145028,17.8411325 84.7145028,15.2807677 C84.7145028,15.1871315 84.7523122,15.0671602 84.708686,15.0057114 C84.5807159,14.8272174 84.6825103,14.6223882 84.6039832,14.4438942 C84.4934635,14.1951731 84.4411121,13.925969 84.3218671,13.6743217 C83.9670408,12.9310844 83.3911751,12.4570511 82.6204458,12.2171084 C82.4168569,12.1527335 82.198726,12.1176199 81.9864119,12.1088415 C81.599593,12.0912847 81.2127741,12.1029893 80.8259553,12.1029893 C80.6921683,12.1029893 79.9999661,12.2902617 79.8429118,12.342932 C79.336848,12.5097215 78.9180366,12.8081869 78.5486682,13.1885839 C78.2171092,13.5309413 77.8390155,14.2888093 77.7459463,14.7862516 C77.7023202,15.0203421 77.6179762,15.2485803 77.5947089,15.4855969 C77.5685332,15.7372442 77.5888921,15.9947437 77.5888921,16.2493172 C77.5888921,18.610705 77.5888921,20.9691668 77.5888921,23.3305546 C77.2689667,23.3920034 75.4773845,23.4095602 74.3169279,23.359816 C74.3111111,16.8725831 74.3111111,10.3882764 74.3111111,3.89811739 Z" id="Path"></path>
                <path d="M65.4411778,23.3853608 C65.136815,23.3853608 64.9181466,23.3943007 64.7024332,23.3823808 C63.916409,23.343641 63.1540246,23.1946419 62.4093701,22.9264436 C61.8006445,22.7089049 61.2391987,22.3989869 60.6895727,22.0652289 C60.4886342,21.9430497 60.3142905,21.7761707 60.1429017,21.6152517 C59.9242333,21.409633 59.7262498,21.1861344 59.5075814,20.9805156 C59.158894,20.6556977 58.9224957,20.2534001 58.6713225,19.8540826 C58.3728697,19.3743056 58.1689762,18.8617488 58.0094074,18.3253521 C57.9503078,18.1286733 57.8587035,17.9379545 57.8705234,17.7293558 C57.8793884,17.5863167 57.7405044,17.5028772 57.7759641,17.3508981 C57.8025589,17.2406388 57.8055139,17.1184596 57.7050446,17.0111802 C57.6725399,16.9754204 57.6991347,16.880061 57.6991347,16.8115215 C57.6991347,16.3347244 57.6843598,15.8549474 57.7050446,15.3781503 C57.7168646,15.0980321 57.7996039,14.8179138 57.8468836,14.5407755 C57.9059832,14.1950976 57.9946325,13.8672997 58.1039667,13.5365217 C58.2605806,13.0656846 58.5856282,12.4220086 58.8249814,12.031631 C59.2091286,11.4028549 59.7528446,10.9200979 60.2758757,10.431381 C60.7043476,10.0320634 61.2451086,9.78174497 61.7681398,9.5195066 C62.007493,9.40030733 62.2557112,9.31388787 62.5068843,9.23938833 C62.7491926,9.16786877 62.9796809,9.06952938 63.233809,9.0188697 C63.5381718,8.95927006 63.8425345,8.91755032 64.1439423,8.85497071 C64.8117674,8.72087154 65.4825475,8.78345115 66.1474176,8.79835106 C66.5463396,8.81027099 66.9600366,8.86093067 67.3530487,9.01588971 C67.5451223,9.09038925 67.7726556,9.10528916 67.9795041,9.17382874 C68.5202651,9.35858759 69.0285214,9.59698612 69.5042729,9.92478409 C70.039124,10.2972818 70.9374374,11.1763763 71.2418001,11.7932325 C71.2683949,11.8498522 71.2743049,11.9183917 71.3215845,11.9660714 C71.4131889,12.0584509 71.389549,12.0733508 71.2743049,12.1538103 C70.8872027,12.4279686 70.4528209,12.6157074 70.0657188,12.8809258 C69.7702209,13.0835645 69.4303984,13.2027638 69.1526305,13.4352024 C69.1260357,13.4560622 69.078756,13.4501023 69.0432963,13.4679822 C68.8334928,13.5693015 68.7980331,13.5663215 68.6886989,13.3994426 C68.5468599,13.1789239 68.4138859,12.9524453 68.2159024,12.7766264 C67.719466,12.3355892 67.1432453,11.9005119 66.2478868,11.718733 C66.0676332,11.6829732 65.8903345,11.6561534 65.7100808,11.6501934 C65.4529977,11.6442334 65.1959146,11.6472134 64.9358765,11.6501934 C64.2946462,11.6531734 63.6947856,11.8319723 63.1481146,12.1478503 C62.6605432,12.4279686 62.2409363,12.7945063 61.8952038,13.2653434 C61.5435614,13.7421405 61.3396679,14.2576773 61.188964,14.8208938 C61.1150896,15.0980321 61.0796298,15.3781503 61.0441701,15.6582686 C61.0057554,15.9532868 60.9968904,16.2632048 61.0441701,16.558223 C61.1475943,17.1989191 61.2598835,17.8366351 61.596751,18.4177315 C61.9336186,18.9988279 62.3532255,19.472645 62.8998965,19.8570626 C63.2929086,20.1342009 63.7568402,20.2236003 64.1734921,20.4232591 C64.4039804,20.3666394 64.6049189,20.5245785 64.8324522,20.5096786 C65.0481657,20.4947786 65.269789,20.4828587 65.4825475,20.5096786 C65.8991994,20.5633182 66.2981215,20.441139 66.6704487,20.3219397 C67.1107405,20.1818806 67.5185275,19.9405021 67.8967647,19.6395239 C68.2336322,19.3713256 68.4818504,19.0524676 68.7182487,18.7097697 C68.7891682,18.6084503 68.8866824,18.5846105 68.9960166,18.6442101 C69.3062894,18.817049 69.6165621,18.983928 69.9209248,19.1686869 C70.169143,19.3206659 70.4114512,19.4845649 70.6773993,19.6067441 C70.8931127,19.7080635 71.0940512,19.8481227 71.2979447,19.9792418 C71.3659092,20.0239416 71.392504,20.0746012 71.3422694,20.1789006 C71.1649707,20.5424584 70.9315274,20.8672763 70.6714893,21.1682545 C70.0745837,21.8596102 69.359479,22.3960069 68.5261751,22.7714846 C68.133163,22.9473035 67.7135561,23.0396829 67.3234989,23.2125218 C67.0811907,23.1678221 66.8684323,23.349601 66.6261241,23.2959613 C66.2065171,23.4688002 65.7750903,23.337681 65.4411778,23.3853608 Z" id="Path"></path>
                <path d="M28.3104302,9.0811382 C28.3104302,10.0038558 28.3104302,10.8820694 28.3104302,11.7780846 C27.0316653,11.7780846 25.7620562,11.7780846 24.495499,11.7780846 C24.4130965,11.8878613 24.4527718,12.0006049 24.4527718,12.1014808 C24.4497199,14.332618 24.443616,16.5607882 24.4527718,18.7919254 C24.4558238,19.3912468 24.7060833,19.8985931 25.1821867,20.2902289 C25.3653034,20.4415427 25.6033551,20.4801129 25.8139393,20.5809888 C25.9665365,20.6521953 26.1435493,20.5483525 26.2930946,20.6403276 C26.439588,20.7293357 26.5677697,20.6848316 26.7051072,20.6076913 C26.7569903,20.5780219 26.8424447,20.6017574 26.9126395,20.6017574 C27.3917948,20.6047243 27.8099113,20.4207742 28.2036122,20.1804522 C28.3317939,20.1033118 28.4508197,20.1151796 28.4813392,20.2486918 C28.5637417,20.6106582 28.7712739,20.9221867 28.881144,21.2722853 C28.9665984,21.5511774 29.0703645,21.8211688 29.213806,22.0763254 C29.265689,22.1683005 29.1863384,22.3047796 29.3267279,22.3611514 C29.3358838,22.3641184 29.3419876,22.4382918 29.2992604,22.4679612 C29.2229618,22.5213661 29.1741307,22.6014734 29.0795204,22.6459775 C28.8109492,22.7705889 28.5576378,22.9337704 28.2799108,23.0376132 C28.0021838,23.144423 27.7091971,23.2334311 27.4192623,23.2779352 C27.1445873,23.3194723 26.8699122,23.4084805 26.5738736,23.384745 C26.1984843,23.3521086 25.8169912,23.3906788 25.441602,23.3728772 C24.831213,23.3432078 24.2482915,23.2215634 23.668422,23.0049769 C23.003098,22.7557542 22.4690076,22.3611514 22.0173197,21.859739 C21.6449825,21.4473346 21.394723,20.951856 21.2573854,20.4148403 C21.1871907,20.141882 21.1261518,19.8659568 21.0742688,19.5870647 C20.9582948,18.9699416 21.0223857,18.3557855 21.007126,17.7416294 C20.9918662,17.1304402 21.004074,16.5192511 21.004074,15.905095 C21.004074,14.5462375 21.004074,13.18738 21.004074,11.7988532 C20.1983605,11.7988532 19.3926471,11.7988532 18.5777778,11.7988532 C18.5777778,10.8909702 18.5777778,10.0097897 18.5777778,9.10190676 C19.3743354,9.10190676 20.1800489,9.10190676 20.9979701,9.10190676 C20.9979701,8.0041398 20.9979701,6.93307529 20.9979701,5.84717608 C22.1516053,5.84717608 23.2930327,5.84717608 24.4466679,5.84717608 C24.4466679,6.92714141 24.4466679,7.99820593 24.4466679,9.0811382 C25.7345887,9.0811382 27.0041978,9.0811382 28.3104302,9.0811382 Z" id="Path"></path>
                <path d="M51.1146058,23.3887043 C50.0325365,23.3887043 48.9789427,23.3887043 47.9111111,23.3887043 C47.9111111,18.5789434 47.9111111,13.7782462 47.9111111,8.97754893 C48.2157991,8.92316721 50.0695547,8.90806117 50.9579905,8.95640048 C50.9579905,9.28269079 50.9579905,9.61200231 50.9579905,9.94131383 C50.9579905,10.2706253 50.9579905,10.5969157 50.9579905,10.9685241 C51.2228128,10.5848308 51.462007,10.2706253 51.7780852,9.99569554 C52.1197913,9.6996173 52.4899729,9.46698439 52.8800874,9.29175441 C53.2673543,9.11652443 53.668859,8.920146 54.1130769,8.93827324 C54.2668446,8.79023412 54.4690207,8.91410359 54.625636,8.84461584 C54.8135744,8.76304326 54.9958177,8.77512808 55.183756,8.77210688 C55.3631517,8.76908567 55.545395,8.77210688 55.7333333,8.77210688 C55.7333333,9.85672004 55.7333333,10.9201848 55.7333333,11.9836495 C55.6108886,12.0924129 55.5482425,11.8839497 55.4229503,11.9232253 C55.3033532,11.9594798 55.1638232,11.932289 55.0328358,11.932289 C54.9160862,11.932289 54.7964891,11.9262465 54.6797395,11.932289 C53.9963273,11.9776071 53.3356955,12.1256462 52.7547951,12.5214242 C52.3333576,12.8084389 51.9517858,13.1528564 51.7154391,13.6543767 C51.5730615,13.9534762 51.4107511,14.2374696 51.3281721,14.5667811 C51.2769162,14.7661807 51.2370505,14.9686016 51.1857946,15.1680012 C51.0576548,15.6665003 51.1203009,16.1710418 51.1174534,16.6725621 C51.1089107,18.8961701 51.1146058,21.1258206 51.1146058,23.3887043 Z" id="Path"></path>
                <path d="M37.6771239,23.3871344 C37.5484825,23.3871344 37.4827325,23.3871344 37.4169825,23.3871344 C36.9338627,23.3990631 36.4621777,23.3424019 35.9847754,23.2380261 C35.5988513,23.1515432 35.2272207,23.0352387 34.8527315,22.9099878 C34.2867095,22.7221113 33.7835789,22.4179303 33.2890243,22.0928741 C32.7944698,21.767818 32.3828175,21.3443503 31.9968934,20.9000075 C31.6052519,20.4497003 31.2822192,19.9397499 31.0363713,19.3880491 C30.7990995,18.8602056 30.6475885,18.2965761 30.4789254,17.7418931 C30.5218059,17.4466586 30.341708,17.1693171 30.4045993,16.8740827 C30.4446211,16.6891883 30.3045449,16.5520087 30.3188384,16.3730787 C30.3331319,16.2090595 30.341708,16.0420582 30.3159797,15.8810212 C30.284534,15.6841982 30.4160341,15.5321077 30.407458,15.3382669 C30.3988819,15.1593369 30.3331319,14.9595317 30.4789254,14.7984947 C30.4674906,14.2289009 30.7161972,13.7308791 30.8677082,13.2030356 C30.9534691,12.9078011 31.0878278,12.636424 31.2450561,12.3829398 C31.425154,12.0906875 31.5852411,11.7835244 31.8110781,11.5151294 C32.0655021,11.2139305 32.5800675,10.6771406 32.8687959,10.4147099 C33.3147526,10.0121174 33.8236006,9.73179377 34.3467421,9.47234528 C34.7526771,9.27254012 35.187199,9.14728912 35.6217209,9.01607379 C36.5650908,8.72978581 37.5227543,8.75662531 38.477559,8.7924113 C38.9406678,8.8103043 39.400918,8.9534483 39.8583095,9.06378846 C40.5358206,9.22482545 41.1275709,9.57373894 41.7364733,9.88984859 C42.0480712,10.0538678 42.3282235,10.2775302 42.5855062,10.5250501 C42.7398759,10.6711762 42.8828107,10.8322132 43.0314629,10.9872859 C43.700398,11.6851129 44.0034198,12.2159385 44.4322243,13.2537325 C44.623757,13.7189504 44.7523984,14.1931149 44.8095723,14.6911367 C44.9782354,14.9118171 44.8238658,15.1861764 44.9239202,15.4217675 C45.0211159,15.6543765 44.9439311,15.9018964 44.9696593,16.1404697 C45.0096811,16.504294 44.8896158,16.8532075 44.8724636,17.2140496 C44.8581702,17.5361236 44.7523984,17.8611798 44.6637788,18.1832538 C44.3922026,19.1554401 44.049159,19.8830887 43.5431696,20.5749513 C43.2344304,20.998419 42.8627998,21.3532968 42.4997453,21.7171211 C42.2596148,21.9556945 41.965169,22.1346244 41.682158,22.3225009 C41.1304296,22.6863253 40.5215272,22.9099878 39.9069074,23.1038286 C39.5781572,23.2082044 39.2236788,23.2439904 38.8863526,23.3185446 C38.4546894,23.4169561 38.034461,23.3453841 37.6771239,23.3871344 Z M33.8093071,17.703125 C33.989405,18.3085048 34.301003,18.8542412 34.7240901,19.3105127 C35.0957207,19.7131052 35.5331013,20.0232505 36.0476667,20.2260379 C36.3478299,20.3453245 36.6651452,20.3751462 36.9538736,20.515308 C37.4798738,20.4735577 38.005874,20.5809157 38.5347329,20.443736 C38.9292331,20.3393602 39.306581,20.2170914 39.6667768,20.0262327 C39.8697443,19.9188747 40.0298313,19.7488912 40.2156466,19.620658 C40.5672663,19.3820847 40.8188316,19.0540464 41.0189404,18.6902221 C41.2876579,18.2071111 41.5620928,17.7150536 41.5763863,17.130549 C41.7193211,16.969512 41.6564298,16.7697068 41.6478537,16.5907768 C41.6392776,16.3879895 41.7479081,16.2150238 41.7421907,16.0092544 C41.7364733,15.8333065 41.6335602,15.6901625 41.6507124,15.5112325 C41.6792994,15.1831942 41.5906798,14.8641024 41.4934841,14.5569392 C41.2876579,13.9038448 40.9903534,13.3044293 40.5186685,12.8034253 C40.2928314,12.564852 40.0355487,12.3799577 39.7696899,12.2040098 C39.335168,11.9117575 38.8434722,11.7328275 38.3346241,11.6672199 C37.88295,11.6105587 37.4198412,11.6552912 36.959591,11.6552912 C36.9081344,11.6552912 36.8452431,11.6403804 36.8052214,11.6642377 C36.6422756,11.7686135 36.4364495,11.7328275 36.2792212,11.8282569 C36.1277102,11.9177218 35.9561884,11.9296505 35.8046775,12.028062 C35.6531666,12.1264735 35.4902208,12.2219028 35.3329925,12.3173322 C34.8813184,12.5887093 34.5154053,12.9823553 34.2638399,13.4326625 C33.8836333,14.1066321 33.5977636,14.8372629 33.6206332,15.6513944 C33.6234919,15.788574 33.6206332,15.9257537 33.6206332,16.0599512 C33.5606005,16.6235807 33.6520788,17.1722993 33.8093071,17.703125 Z" id="Shape"></path>
            </g>
        </g>
    </g>
</svg>