<?xml version="1.0" encoding="utf-8"?>
<!-- Generator: Adobe Illustrator 24.2.3, SVG Export Plug-In . SVG Version: 6.00 Build 0)  -->
<svg version="1.1" id="Layer_1" xmlns="http://www.w3.org/2000/svg" xmlns:xlink="http://www.w3.org/1999/xlink" x="0px" y="0px"
	 viewBox="0 0 328 216" style="enable-background:new 0 0 328 216;" xml:space="preserve">
<style type="text/css">
	.st0{fill:#FFFFFF;}
</style>
<path class="st0" d="M32.22,56.86c1.09,0.6,2.17,1.12,3.12,1.89c0.68,0.54,1.47,0.95,2.09,1.58c0.64,0.65,1.27,1.32,1.95,1.94
	c1.42,1.29,2.48,2.87,3.5,4.47c1.6,2.52,2.88,5.22,3.76,8.06c0.42,1.34,0.76,2.73,0.97,4.15c0.18,1.21,0.35,2.43,0.58,3.62
	c0.26,1.4,0.25,2.79,0.17,4.16c-0.07,1.25,0.78,1.45,1.76,0.99c0.92-0.44,1.55-1.2,2.13-1.99c1.22-1.68,1.84-3.64,2.47-5.58
	c0.47-1.46,0.7-3.01,1.15-4.48c0.18-0.57,0.24-1.11,0.25-1.68c0-0.18-0.01-0.36,0.26-0.38c0.16-0.01,0.22,0.08,0.3,0.2
	c0.73,1.21,1.61,2.36,2.17,3.64c0.85,1.98,1.89,3.91,2.27,6.08c0.11,0.61,0.32,1.28,0.58,1.81c0.31,0.63-0.08,1.37,0.48,1.87
	c-0.16,0.77,0.4,1.45,0.29,2.22c-0.08,0.55,0.35,0.98,0.3,1.54c-0.05,0.51-0.19,1.08,0.25,1.54c0.05,0.05,0.01,0.18,0.01,0.27
	c-0.2,2.08,0.33,4.13,0.3,6.21c-0.03,1.94-0.41,3.85-0.35,5.8c0.02,0.66-0.02,1.49-0.29,2.05c-0.3,0.63,0.11,1.38-0.48,1.87
	c0.19,0.73-0.12,1.45-0.32,2.07c-0.62,1.93-1.18,3.89-2,5.77c-0.59,1.36-1.19,2.74-1.92,4.01c-1.09,1.9-2.26,3.76-3.53,5.57
	c-2.14,3.06-4.86,5.55-7.44,8.19c-0.1,0.1-0.18,0.23-0.3,0.28c-0.1,0.05-0.26,0.06-0.37,0.02c-0.17-0.06-0.15-0.3-0.09-0.35
	c0.48-0.44,0.51-1.08,0.75-1.62c0.91-2.1,1.8-4.22,2.49-6.39c0.55-1.74,1.11-3.5,1.49-5.31c0.21-0.98,0.26-2.05,0.77-2.97
	c-0.19-1,0.36-1.91,0.3-2.91c-0.09-1.51-0.03-3.02-0.02-4.54c0-0.14-0.02-0.29-0.16-0.33c-0.17-0.04-0.3,0-0.4,0.22
	c-0.39,0.81-0.75,1.62-1.3,2.36c-1,1.33-2.19,2.55-3.6,3.26c-0.75,0.38-1.47,0.82-2.32,1.07c-0.53,0.16-1,0.22-1.51,0.2
	c-0.28-0.77,0.34-1.38,0.25-2.08c0.61-0.75,0.58-1.73,0.72-2.58c0.27-1.6,0.71-3.19,0.63-4.85c-0.09-1.69,0.05-3.4-0.05-5.09
	c-0.06-0.98-0.36-1.95-0.6-2.91c-0.34-1.37-0.87-2.66-1.57-3.89c-0.67-1.18-1.36-2.32-2.31-3.31c-1.3-1.35-2.66-2.61-4.33-3.5
	c-0.13-0.07-0.24-0.09-0.37-0.1c-0.2,0.11-0.17,0.31-0.15,0.48c0.17,1.72-0.23,3.41-0.34,5.11c-0.11,1.78-0.4,3.62-1.09,5.3
	c-0.66,1.61-1.44,3.16-2.23,4.72c-1.07,2.13-2.04,4.29-2.73,6.57c-0.23,0.75-0.45,1.5-0.48,2.27c-0.06,1.33-0.14,2.67,0.02,3.98
	c0.15,1.19,0.38,2.38,0.67,3.55c0.29,1.16,0.67,2.3,1.05,3.43c0.58,1.72,1.38,3.37,2.21,5c0.93,1.83,1.93,3.63,3.11,5.31
	c0.15,0.21,0.26,0.44,0.35,0.68c0.05,0.12,0.01,0.28-0.13,0.35c-0.07,0.04-0.21,0.05-0.27,0c-1.13-0.96-2.45-1.64-3.64-2.52
	c-1.24-0.91-2.34-1.99-3.64-2.84c-0.41-0.27-0.72-0.7-1.08-1.06c-1.3-1.3-2.61-2.58-3.89-3.89c-1.85-1.89-3.39-3.99-4.73-6.29
	c-1-1.71-1.9-3.42-2.48-5.31c-0.36-1.16-0.59-2.33-0.84-3.51c-0.3-1.4-0.1-2.78-0.23-4.16c-0.06-0.64,0.16-1.21,0.28-1.81
	c0.12-0.6-0.1-1.2,0.23-1.84c0.25-0.49,0.19-1.19,0.27-1.79c0.18-1.34,0.71-2.56,1.06-3.84c0.6-2.19,1.61-4.21,2.67-6.18
	c0.78-1.44,1.66-2.82,2.68-4.13c1.38-1.77,2.78-3.53,4.19-5.28c1.28-1.59,2.46-3.27,3.6-4.97c0.74-1.09,1.13-2.38,1.51-3.63
	c0.17-0.56,0.2-1.25,0.42-1.75c0.25-0.58-0.1-1.28,0.45-1.74c-0.15-1.04,0.44-2,0.29-3.05c-0.15-1.07,0.37-2.09,0.28-3.19
	c-0.09-1.09-0.08-2.2,0-3.3C32.51,58.77,31.87,57.91,32.22,56.86z"/>
<path class="st0" d="M267.44,68.15c3.74,0,7.44,0,11.24,0c0,7.96,0,15.91,0,24.07c1.01-1.09,1.98-1.89,3.07-2.57
	c1.87-1.16,3.82-2.06,5.96-2.57c1.02-0.25,2.06-0.37,3.07-0.59c1.13-0.25,2.23-0.15,3.34-0.2c1.14-0.05,2.32-0.15,3.44,0.03
	c1.27,0.21,2.55,0.42,3.79,0.78c1.23,0.36,2.44,0.75,3.55,1.39c1.09,0.63,2.11,1.36,3.12,2.14c1.35,1.05,2.24,2.4,3.2,3.75
	c1.02,1.42,1.64,2.99,2.15,4.62c0.44,1.4,0.68,2.85,0.9,4.32c0.2,1.35,0.19,2.68,0.22,4.02c0.03,1.33,0.01,2.66,0.01,3.99
	c0,7.74,0,15.49,0,23.23c-1.11,0.19-7.96,0.25-11.29,0.08c0-0.44,0-0.89,0-1.33c0-8.75,0-17.51,0-26.26c0-0.32,0.13-0.73-0.02-0.94
	c-0.44-0.61-0.09-1.31-0.36-1.92c-0.38-0.85-0.56-1.77-0.97-2.63c-1.22-2.54-3.2-4.16-5.85-4.98c-0.7-0.22-1.45-0.34-2.18-0.37
	c-1.33-0.06-2.66-0.02-3.99-0.02c-0.46,0-2.84,0.64-3.38,0.82c-1.74,0.57-3.18,1.59-4.45,2.89c-1.14,1.17-2.44,3.76-2.76,5.46
	c-0.15,0.8-0.44,1.58-0.52,2.39c-0.09,0.86-0.02,1.74-0.02,2.61c0,8.07,0,16.13,0,24.2c-1.1,0.21-7.26,0.27-11.25,0.1
	C267.44,112.49,267.44,90.33,267.44,68.15z"/>
<path class="st0" d="M237.95,135.24c-1.03,0-1.77,0.03-2.5-0.01c-2.66-0.13-5.24-0.63-7.76-1.53c-2.06-0.73-3.96-1.77-5.82-2.89
	c-0.68-0.41-1.27-0.97-1.85-1.51c-0.74-0.69-1.41-1.44-2.15-2.13c-1.18-1.09-1.98-2.44-2.83-3.78c-1.01-1.61-1.7-3.33-2.24-5.13
	c-0.2-0.66-0.51-1.3-0.47-2c0.03-0.48-0.44-0.76-0.32-1.27c0.09-0.37,0.1-0.78-0.24-1.14c-0.11-0.12-0.02-0.44-0.02-0.67
	c0-1.6-0.05-3.21,0.02-4.81c0.04-0.94,0.32-1.88,0.48-2.81c0.2-1.16,0.5-2.26,0.87-3.37c0.53-1.58,1.63-3.74,2.44-5.05
	c1.3-2.11,3.14-3.73,4.91-5.37c1.45-1.34,3.28-2.18,5.05-3.06c0.81-0.4,1.65-0.69,2.5-0.94c0.82-0.24,1.6-0.57,2.46-0.74
	c1.03-0.2,2.06-0.34,3.08-0.55c2.26-0.45,4.53-0.24,6.78-0.19c1.35,0.04,2.75,0.21,4.08,0.73c0.65,0.25,1.42,0.3,2.12,0.53
	c1.83,0.62,3.55,1.42,5.16,2.52c1.81,1.25,4.85,4.2,5.88,6.27c0.09,0.19,0.11,0.42,0.27,0.58c0.31,0.31,0.23,0.36-0.16,0.63
	c-1.31,0.92-2.78,1.55-4.09,2.44c-1,0.68-2.15,1.08-3.09,1.86c-0.09,0.07-0.25,0.05-0.37,0.11c-0.71,0.34-0.83,0.33-1.2-0.23
	c-0.48-0.74-0.93-1.5-1.6-2.09c-1.68-1.48-3.63-2.94-6.66-3.55c-0.61-0.12-1.21-0.21-1.82-0.23c-0.87-0.02-1.74-0.01-2.62,0
	c-2.17,0.01-4.2,0.61-6.05,1.67c-1.65,0.94-3.07,2.17-4.24,3.75c-1.19,1.6-1.88,3.33-2.39,5.22c-0.25,0.93-0.37,1.87-0.49,2.81
	c-0.13,0.99-0.16,2.03,0,3.02c0.35,2.15,0.73,4.29,1.87,6.24c1.14,1.95,2.56,3.54,4.41,4.83c1.33,0.93,2.9,1.23,4.31,1.9
	c0.78-0.19,1.46,0.34,2.23,0.29c0.73-0.05,1.48-0.09,2.2,0c1.41,0.18,2.76-0.23,4.02-0.63c1.49-0.47,2.87-1.28,4.15-2.29
	c1.14-0.9,1.98-1.97,2.78-3.12c0.24-0.34,0.57-0.42,0.94-0.22c1.05,0.58,2.1,1.14,3.13,1.76c0.84,0.51,1.66,1.06,2.56,1.47
	c0.73,0.34,1.41,0.81,2.1,1.25c0.23,0.15,0.32,0.32,0.15,0.67c-0.6,1.22-1.39,2.31-2.27,3.32c-2.02,2.32-4.44,4.12-7.26,5.38
	c-1.33,0.59-2.75,0.9-4.07,1.48c-0.82-0.15-1.54,0.46-2.36,0.28C240.54,135.52,239.08,135.08,237.95,135.24z"/>
<path class="st0" d="M110.08,87.06c0,3.11,0,6.07,0,9.09c-4.19,0-8.35,0-12.5,0c-0.27,0.37-0.14,0.75-0.14,1.09
	c-0.01,7.52-0.03,15.03,0,22.55c0.01,2.02,0.83,3.73,2.39,5.05c0.6,0.51,1.38,0.64,2.07,0.98c0.5,0.24,1.08-0.11,1.57,0.2
	c0.48,0.3,0.9,0.15,1.35-0.11c0.17-0.1,0.45-0.02,0.68-0.02c1.57,0.01,2.94-0.61,4.23-1.42c0.42-0.26,0.81-0.22,0.91,0.23
	c0.27,1.22,0.95,2.27,1.31,3.45c0.28,0.94,0.62,1.85,1.09,2.71c0.17,0.31-0.09,0.77,0.37,0.96c0.03,0.01,0.05,0.26-0.09,0.36
	c-0.25,0.18-0.41,0.45-0.72,0.6c-0.88,0.42-1.71,0.97-2.62,1.32c-0.91,0.36-1.87,0.66-2.82,0.81c-0.9,0.14-1.8,0.44-2.77,0.36
	c-1.23-0.11-2.48,0.02-3.71-0.04c-2-0.1-3.91-0.51-5.81-1.24c-2.18-0.84-3.93-2.17-5.41-3.86c-1.22-1.39-2.04-3.06-2.49-4.87
	c-0.23-0.92-0.43-1.85-0.6-2.79c-0.38-2.08-0.17-4.15-0.22-6.22c-0.05-2.06-0.01-4.12-0.01-6.19c0-4.58,0-9.16,0-13.84
	c-2.64,0-5.28,0-7.95,0c0-3.06,0-6.03,0-9.09c2.61,0,5.25,0,7.93,0c0-3.7,0-7.31,0-10.97c3.78,0,7.52,0,11.3,0c0,3.64,0,7.25,0,10.9
	C101.64,87.06,105.8,87.06,110.08,87.06z"/>
<path class="st0" d="M190.26,134.66c-3.8,0-7.5,0-11.25,0c0-15.92,0-31.81,0-47.7c1.07-0.18,7.58-0.23,10.7-0.07
	c0,1.08,0,2.17,0,3.26c0,1.09,0,2.17,0,3.4c0.93-1.27,1.77-2.31,2.88-3.22c1.2-0.98,2.5-1.75,3.87-2.33
	c1.36-0.58,2.77-1.23,4.33-1.17c0.54-0.49,1.25-0.08,1.8-0.31c0.66-0.27,1.3-0.23,1.96-0.24c0.63-0.01,1.27,0,1.93,0
	c0,3.59,0,7.11,0,10.63c-0.43,0.36-0.65-0.33-1.09-0.2c-0.42,0.12-0.91,0.03-1.37,0.03c-0.41,0-0.83-0.02-1.24,0
	c-2.4,0.15-4.72,0.64-6.76,1.95c-1.48,0.95-2.82,2.09-3.65,3.75c-0.5,0.99-1.07,1.93-1.36,3.02c-0.18,0.66-0.32,1.33-0.5,1.99
	c-0.45,1.65-0.23,3.32-0.24,4.98C190.24,119.79,190.26,127.17,190.26,134.66z"/>
<path class="st0" d="M142.73,135.24c-0.45,0-0.68,0-0.91,0c-1.69,0.04-3.34-0.15-5.01-0.5c-1.35-0.29-2.65-0.68-3.96-1.1
	c-1.98-0.63-3.74-1.65-5.47-2.74c-1.73-1.09-3.17-2.51-4.52-4c-1.37-1.51-2.5-3.22-3.36-5.07c-0.83-1.77-1.36-3.66-1.95-5.52
	c0.15-0.99-0.48-1.92-0.26-2.91c0.14-0.62-0.35-1.08-0.3-1.68c0.05-0.55,0.08-1.11-0.01-1.65c-0.11-0.66,0.35-1.17,0.32-1.82
	c-0.03-0.6-0.26-1.27,0.25-1.81c-0.04-1.91,0.83-3.58,1.36-5.35c0.3-0.99,0.77-1.9,1.32-2.75c0.63-0.98,1.19-2.01,1.98-2.91
	c0.89-1.01,2.69-2.81,3.7-3.69c1.56-1.35,3.34-2.29,5.17-3.16c1.42-0.67,2.94-1.09,4.46-1.53c3.3-0.96,6.65-0.87,9.99-0.75
	c1.62,0.06,3.23,0.54,4.83,0.91c2.37,0.54,4.44,1.71,6.57,2.77c1.09,0.55,2.07,1.3,2.97,2.13c0.54,0.49,1.04,1.03,1.56,1.55
	c2.34,2.34,3.4,4.12,4.9,7.6c0.67,1.56,1.12,3.15,1.32,4.82c0.59,0.74,0.05,1.66,0.4,2.45c0.34,0.78,0.07,1.61,0.16,2.41
	c0.14,1.22-0.28,2.39-0.34,3.6c-0.05,1.08-0.42,2.17-0.73,3.25c-0.95,3.26-2.15,5.7-3.92,8.02c-1.08,1.42-2.38,2.61-3.65,3.83
	c-0.84,0.8-1.87,1.4-2.86,2.03c-1.93,1.22-4.06,1.97-6.21,2.62c-1.15,0.35-2.39,0.47-3.57,0.72
	C145.45,135.34,143.98,135.1,142.73,135.24z M129.2,116.18c0.63,2.03,1.72,3.86,3.2,5.39c1.3,1.35,2.83,2.39,4.63,3.07
	c1.05,0.4,2.16,0.5,3.17,0.97c1.84-0.14,3.68,0.22,5.53-0.24c1.38-0.35,2.7-0.76,3.96-1.4c0.71-0.36,1.27-0.93,1.92-1.36
	c1.23-0.8,2.11-1.9,2.81-3.12c0.94-1.62,1.9-3.27,1.95-5.23c0.5-0.54,0.28-1.21,0.25-1.81c-0.03-0.68,0.35-1.26,0.33-1.95
	c-0.02-0.59-0.38-1.07-0.32-1.67c0.1-1.1-0.21-2.17-0.55-3.2c-0.72-2.19-1.76-4.2-3.41-5.88c-0.79-0.8-1.69-1.42-2.62-2.01
	c-1.52-0.98-3.24-1.58-5.02-1.8c-1.58-0.19-3.2-0.04-4.81-0.04c-0.18,0-0.4-0.05-0.54,0.03c-0.57,0.35-1.29,0.23-1.84,0.55
	c-0.53,0.3-1.13,0.34-1.66,0.67c-0.53,0.33-1.1,0.65-1.65,0.97c-1.58,0.91-2.86,2.23-3.74,3.74c-1.33,2.26-2.33,4.71-2.25,7.44
	c0.01,0.46,0,0.92,0,1.37C128.33,112.56,128.65,114.4,129.2,116.18z"/>
</svg>
