<?xml version="1.0" encoding="UTF-8"?>
<svg width="28px" height="28px" viewBox="0 0 28 28" version="1.1" xmlns="http://www.w3.org/2000/svg" xmlns:xlink="http://www.w3.org/1999/xlink">
    <title>Icon Copy</title>
    <g id="Symbols" stroke="none" stroke-width="1" fill="none" fill-rule="evenodd">
        <g id="button/icon/add/on" fill="#29BD9A" fill-rule="nonzero">
            <g id="Icon-Copy">
                <path d="M19.75,13 L15,13 L15,8.25 C15,8.1125 14.8875,8 14.75,8 L13.25,8 C13.1125,8 13,8.1125 13,8.25 L13,13 L8.25,13 C8.1125,13 8,13.1125 8,13.25 L8,14.75 C8,14.8875 8.1125,15 8.25,15 L13,15 L13,19.75 C13,19.8875 13.1125,20 13.25,20 L14.75,20 C14.8875,20 15,19.8875 15,19.75 L15,15 L19.75,15 C19.8875,15 20,14.8875 20,14.75 L20,13.25 C20,13.1125 19.8875,13 19.75,13 Z" id="Icon-Path"></path>
                <path d="M14,0 C6.26875,0 0,6.26875 0,14 C0,21.73125 6.26875,28 14,28 C21.73125,28 28,21.73125 28,14 C28,6.26875 21.73125,0 14,0 Z M14,25.625 C7.58125,25.625 2.375,20.41875 2.375,14 C2.375,7.58125 7.58125,2.375 14,2.375 C20.41875,2.375 25.625,7.58125 25.625,14 C25.625,20.41875 20.41875,25.625 14,25.625 Z" id="Icon-Shape"></path>
            </g>
        </g>
    </g>
</svg>