<?xml version="1.0" encoding="UTF-8"?>
<svg width="18px" height="24px" viewBox="0 0 18 24" version="1.1" xmlns="http://www.w3.org/2000/svg" xmlns:xlink="http://www.w3.org/1999/xlink">
    <title>Group</title>
    <g id="Symbols" stroke="none" stroke-width="1" fill="none" fill-rule="evenodd">
        <g id="icon/reward/green" fill-rule="nonzero" stroke="#29BD9A" stroke-width="1.5">
            <g id="Group" transform="translate(1.000000, 1.000000)">
                <path d="M2.52412684,12.7564644 L0.0500823183,18.6961693 C-0.132834348,19.1449193 0.208832318,19.6324193 0.692998985,19.614086 L2.88841565,19.530336 L4.39841565,21.125336 C4.73174898,21.4770026 5.31674898,21.3674193 5.49966565,20.9186693 L8.33133232,14.0611693" id="Path"></path>
                <path d="M10.0535386,12.7564644 L7.57949408,18.6961693 C7.39657742,19.1449193 7.73824408,19.6324193 8.22241075,19.614086 L10.4178274,19.530336 L11.9278274,21.125336 C12.2611607,21.4770026 12.8461607,21.3674193 13.0290774,20.9186693 L15.8607441,14.0611693" id="Path" transform="translate(11.695078, 17.045111) scale(-1, 1) translate(-11.695078, -17.045111) "></path>
                <path d="M10.9584157,14.1670026 C11.5950823,13.519086 11.667999,13.5749193 12.5746657,13.327836 C13.1534157,13.1699193 13.6059157,12.7095026 13.7609157,12.120336 C14.0725823,10.9370026 13.991749,11.0799193 14.8421657,10.214086 C15.2659157,9.78283596 15.4313323,9.15408596 15.2763323,8.5649193 C14.9650823,7.3824193 14.9646657,7.5474193 15.2763323,6.3636693 C15.4313323,5.77450263 15.2659157,5.14575263 14.8421657,4.71450263 C13.991749,3.8486693 14.0725823,3.9911693 13.7609157,2.80825263 C13.6059157,2.21908596 13.1534157,1.7586693 12.5746657,1.60075263 C11.412999,1.2836693 11.552999,1.36658596 10.701749,0.500335963 C10.277999,0.0690859635 9.66008232,-0.0996640365 9.08133232,0.0582526302 C7.92008232,0.374919297 8.08216565,0.375335963 6.91883232,0.0582526302 C6.34008232,-0.0996640365 5.72216565,0.0686692968 5.29841565,0.500335963 C4.44799898,1.3661693 4.58799898,1.2836693 3.42591565,1.60075263 C2.84716565,1.7586693 2.39466565,2.21908596 2.23966565,2.80825263 C1.92841565,3.9911693 2.00883232,3.8486693 1.15841565,4.71450263 C0.734665652,5.14575263 0.568832318,5.77450263 0.724248985,6.3636693 C1.03549898,7.54533596 1.03591565,7.38033596 0.724248985,8.56450263 C0.569248985,9.1536693 0.734665652,9.7824193 1.15841565,10.214086 C2.00883232,11.0799193 1.92799898,10.9370026 2.23966565,12.120336 C2.39466565,12.7095026 2.84716565,13.1699193 3.42591565,13.327836 C4.35841565,13.5820026 4.42799898,13.5420026 5.04174898,14.1670026 C5.59299898,14.7282526 6.45174898,14.8286693 7.11424898,14.4095026 C7.6550546,14.0661716 8.3455267,14.0661716 8.88633232,14.4095026 C9.54841565,14.8286693 10.4071657,14.7282526 10.9584157,14.1670026 Z" id="Icon-Path"></path>
                <path d="M8.00008232,3.50591567 C10.0791705,3.50591567 11.7647882,5.21892836 11.7647882,7.33200263 C11.7647882,9.4450769 10.0791705,11.1580896 8.00008232,11.1580896 C5.92099416,11.1580896 4.23537644,9.4450769 4.23537644,7.33200263 C4.23537644,5.21892836 5.92099416,3.50591567 8.00008232,3.50591567 Z" id="Icon-Path"></path>
            </g>
        </g>
    </g>
</svg>