<?xml version="1.0" encoding="UTF-8"?>
<svg width="22px" height="25px" viewBox="0 0 22 25" version="1.1" xmlns="http://www.w3.org/2000/svg" xmlns:xlink="http://www.w3.org/1999/xlink">
    <title>Icon</title>
    <g id="Symbols" stroke="none" stroke-width="1" fill="none" fill-rule="evenodd" stroke-linecap="round">
        <g id="icon/trash/sm" transform="translate(1.000000, 1.000000)" stroke="#6C6C6C" stroke-width="1.5">
            <g id="Icon">
                <path d="M15.459,23.1578947 L5.06742105,23.1578947 C3.03268421,23.1578947 1.579,21.2452632 1.579,19.2105263 L1.579,4.78210526 C1.579,4.20105263 1.85426316,4.21052632 2.43584211,4.21052632 L17.5642632,4.21052632 C18.1458421,4.21052632 18.4211053,4.20105263 18.4211053,4.78210526 L18.4211053,19.7368421 C18.4211053,21.4810526 17.2032105,23.1578947 15.459,23.1578947 L15.459,23.1578947 Z" id="Stroke-262"></path>
                <line x1="0" y1="4.21052632" x2="20" y2="4.21052632" id="Stroke-264"></line>
                <path d="M13.6842105,3.15789474 C13.6842105,3.44842105 13.4484211,3.68421053 13.1578947,3.68421053 L6.84210526,3.68421053 C6.55157895,3.68421053 6.31578947,3.44842105 6.31578947,3.15789474 L6.31578947,0.526315789 C6.31578947,0.235789474 6.55157895,0 6.84210526,0 L13.1578947,0 C13.4484211,0 13.6842105,0.235789474 13.6842105,0.526315789 L13.6842105,3.15789474 L13.6842105,3.15789474 Z" id="Stroke-266"></path>
                <line x1="5.78947368" y1="8.94736842" x2="5.78947368" y2="18.4210526" id="Stroke-268"></line>
                <line x1="10" y1="8.94736842" x2="10" y2="18.4210526" id="Stroke-270"></line>
                <line x1="14.2105263" y1="8.94736842" x2="14.2105263" y2="18.4210526" id="Stroke-272"></line>
            </g>
        </g>
    </g>
</svg>