<?xml version="1.0" encoding="UTF-8"?>
<svg width="14px" height="12px" viewBox="0 0 14 12" version="1.1" xmlns="http://www.w3.org/2000/svg" xmlns:xlink="http://www.w3.org/1999/xlink">
    <title>bi-list copy 3</title>
    <g id="Symbols" stroke="none" stroke-width="1" fill="none" fill-rule="evenodd">
        <g id="icon/list/primary" transform="translate(-3.000000, -3.000000)" fill-rule="nonzero">
            <g id="bi-list-copy-3">
                <g id="Icon" transform="translate(2.000000, 3.000000)" fill="#008FBE">
                    <g id="Icon-Group" transform="translate(0.500000, 0.750000)">
                        <path d="M0.625,10.625 C0.625,10.279822 0.904822031,10 1.25,10 L13.75,10 C14.095178,10 14.375,10.279822 14.375,10.625 C14.375,10.970178 14.095178,11.25 13.75,11.25 L1.25,11.25 C0.904822031,11.25 0.625,10.970178 0.625,10.625 Z M0.625,5.625 C0.625,5.27982203 0.904822031,5 1.25,5 L13.75,5 C14.095178,5 14.375,5.27982203 14.375,5.625 C14.375,5.97017797 14.095178,6.25 13.75,6.25 L1.25,6.25 C0.904822031,6.25 0.625,5.97017797 0.625,5.625 Z M0.625,0.625 C0.625,0.279822031 0.904822031,0 1.25,0 L13.75,0 C14.095178,0 14.375,0.279822031 14.375,0.625 C14.375,0.970177969 14.095178,1.25 13.75,1.25 L1.25,1.25 C0.904822031,1.25 0.625,0.970177969 0.625,0.625 Z" id="Icon-Shape"></path>
                    </g>
                </g>
                <rect id="ViewBox" x="0" y="0" width="20" height="18"></rect>
            </g>
        </g>
    </g>
</svg>