<?xml version="1.0" encoding="UTF-8"?>
<svg width="22px" height="22px" viewBox="0 0 22 22" version="1.1" xmlns="http://www.w3.org/2000/svg" xmlns:xlink="http://www.w3.org/1999/xlink">
    <title>icon/equipmentserv/blue/reg</title>
    <g id="Components" stroke="none" stroke-width="1" fill="none" fill-rule="evenodd">
        <g id="07-Navigation" transform="translate(-147.000000, -3351.000000)" fill-rule="nonzero" stroke="#0078A0">
            <g id="Group-4" transform="translate(87.000000, 2836.000000)">
                <g id="Group" transform="translate(61.000000, 516.000000)">
                    <g id="bi-wrench-copy-2" transform="translate(10.000000, 10.000000) rotate(90.000000) translate(-10.000000, -10.000000) ">
                        <g id="Icon-Group" transform="translate(0.000000, 0.000000)">
                            <path d="M0.1275,2.77875 C-0.216591951,4.07335874 0.155038995,5.45323353 1.10276354,6.39992738 C2.05048808,7.34662123 3.43076645,7.71675046 4.725,7.37125 L12.65125,15.18625 C12.3172543,16.3208824 12.53756,17.5465696 13.2457646,18.4938763 C13.9539692,19.441183 15.0672307,19.9992982 16.25,20 C17.7177546,19.9979535 19.0493933,19.1397966 19.6576294,17.8039985 C20.2658655,16.4682003 20.0388759,14.9003449 19.0767688,13.7918965 C18.1146617,12.6834482 16.5943188,12.238193 15.18625,12.6525 L7.37125,4.72625 C7.71843574,3.431488 7.34906492,2.04983951 6.40208917,1.1010595 C5.45511341,0.152279493 4.07417051,-0.219720581 2.77875,0.125 L4.725,2.14855957 L4.27,4.34605957 L2.07375,4.80105957 L0.1275,2.77875 Z" id="Icon-Path" stroke-width="1.25"></path>
                            <polygon id="Icon-Path" points="16.25 14.5 15.837875 14.71175 15.375 14.7345 15.123875 15.123875 14.7345 15.375 14.71175 15.837875 14.5 16.25 14.71175 16.662125 14.7345 17.125 15.123875 17.376125 15.375 17.7655 15.837875 17.78825 16.25 18 16.662125 17.78825 17.125 17.7655 17.376125 17.376125 17.7655 17.125 17.78825 16.662125 18 16.25 17.78825 15.837875 17.7655 15.375 17.376125 15.123875 17.125 14.7345 16.662125 14.71175"></polygon>
                        </g>
                    </g>
                </g>
            </g>
        </g>
    </g>
</svg>