<?xml version="1.0" encoding="UTF-8"?>
<svg width="18px" height="15px" viewBox="0 0 18 15" version="1.1" xmlns="http://www.w3.org/2000/svg" xmlns:xlink="http://www.w3.org/1999/xlink">
    <title>icon/alert/dkgray</title>
    <defs>
        <filter id="filter-1">
            <feColorMatrix in="SourceGraphic" type="matrix" values="0 0 0 0 0.113725 0 0 0 0 0.113725 0 0 0 0 0.113725 0 0 0 1.000000 0"></feColorMatrix>
        </filter>
        <filter id="filter-2">
            <feColorMatrix in="SourceGraphic" type="matrix" values="0 0 0 0 0.803922 0 0 0 0 0.345098 0 0 0 0 0.345098 0 0 0 1.000000 0"></feColorMatrix>
        </filter>
        <filter id="filter-3">
            <feColorMatrix in="SourceGraphic" type="matrix" values="0 0 0 0 0.803922 0 0 0 0 0.345098 0 0 0 0 0.345098 0 0 0 1.000000 0"></feColorMatrix>
        </filter>
    </defs>
    <g id="Components" stroke="none" stroke-width="1" fill="none" fill-rule="evenodd">
        <g id="12-Icons" transform="translate(-1555.000000, -1118.000000)">
            <g id="eva-alert-triangle-outline-copy" transform="translate(1555.000000, 1117.000000)" filter="url(#filter-1)">
                <g>
                    <g filter="url(#filter-2)" id="Icon">
                        <g id="Icon-Group" transform="translate(0.750000, 1.500000)" fill="#000000" fill-rule="nonzero">
                            <path d="M16.17,10.725 L10.4175,1.185 C9.94478896,0.44550001 9.12767646,-0.00196761135 8.25,-0.00196761135 C7.37232354,-0.00196761135 6.55521104,0.44550001 6.0825,1.185 L0.33,10.725 C-0.0835904974,11.4144353 -0.0978859924,12.272165 0.2925,12.975 C0.743980225,13.7663534 1.58642236,14.2534798 2.4975,14.25 L14.0025,14.25 C14.9073781,14.2596558 15.7483736,13.784808 16.2075,13.005 C16.6095645,12.2944787 16.5952131,11.4219148 16.17,10.725 L16.17,10.725 Z M14.895,12.2625 C14.7112821,12.5783039 14.3675009,12.7660836 14.0025,12.75 L2.4975,12.75 C2.13249907,12.7660836 1.78871786,12.5783039 1.605,12.2625 C1.4710254,12.0304492 1.4710254,11.7445508 1.605,11.5125 L7.365,1.965 C7.57482293,1.68783812 7.90237323,1.52498134 8.25,1.52498134 C8.59762677,1.52498134 8.92517707,1.68783812 9.135,1.965 L14.8875,11.505 C15.0267047,11.7375918 15.0295721,12.0271976 14.895,12.2625 Z" id="Icon-Shape"></path>
                            <circle id="Icon-Oval" cx="8.25" cy="10.5" r="1"></circle>
                            <path d="M8.25,4.5 C7.83578644,4.5 7.5,4.83578644 7.5,5.25 L7.5,8.25 C7.5,8.66421356 7.83578644,9 8.25,9 C8.66421356,9 9,8.66421356 9,8.25 L9,5.25 C9,4.83578644 8.66421356,4.5 8.25,4.5 Z" id="Icon-Path"></path>
                        </g>
                    </g>
                    <g filter="url(#filter-3)" id="Icon/alert/outline">
                        <g>
                            <rect id="ViewBox" fill-rule="nonzero" x="0" y="0" width="18" height="18"></rect>
                        </g>
                    </g>
                </g>
            </g>
        </g>
    </g>
</svg>