<?xml version="1.0" encoding="UTF-8"?>
<svg width="18px" height="24px" viewBox="0 0 18 24" version="1.1" xmlns="http://www.w3.org/2000/svg" xmlns:xlink="http://www.w3.org/1999/xlink">
    <title>Icon/award/green/reg</title>
    <g id="Components" stroke="none" stroke-width="1" fill="none" fill-rule="evenodd">
        <g id="07-Navigation" transform="translate(-149.000000, -3265.000000)" fill-rule="nonzero" stroke="#29BD9A" stroke-width="1.5">
            <g id="Group-4" transform="translate(87.000000, 2836.000000)">
                <g id="Group" transform="translate(62.000000, 429.000000)">
                    <g id="Group" transform="translate(1.024155, 1.024155)">
                        <path d="M2.58509613,13.0645918 L0.0512920371,19.147768 C-0.13604291,19.6073573 0.213876581,20.1066327 0.709738104,20.0878565 L2.9581842,20.0020836 L4.50465766,21.6356102 C4.84604253,21.9957712 5.44517298,21.8835409 5.63250792,21.4239516 L8.53257239,14.4008113" id="Path"></path>
                        <path d="M10.2963779,13.0645918 L7.7625738,19.147768 C7.57523885,19.6073573 7.92515834,20.1066327 8.42101986,20.0878565 L10.669466,20.0020836 L12.2159394,21.6356102 C12.5573243,21.9957712 13.1564547,21.8835409 13.3437897,21.4239516 L16.2438541,14.4008113" id="Path" transform="translate(11.977568, 17.456829) scale(-1, 1) translate(-11.977568, -17.456829) "></path>
                        <path d="M11.2231119,14.509201 C11.875157,13.8456342 11.9498349,13.9028162 12.8784018,13.6497646 C13.4711313,13.4880335 13.9345612,13.0164957 14.0933052,12.4130979 C14.4125,11.2011816 14.3297142,11.3475504 15.2006724,10.4608032 C15.6346579,10.0191365 15.8040701,9.37519933 15.6453261,8.77180157 C15.326558,7.56073875 15.3261313,7.72972426 15.6453261,6.51738124 C15.8040701,5.91398348 15.6346579,5.27004627 15.2006724,4.8283796 C14.3297142,3.9416324 14.4125,4.08757443 14.0933052,2.87608487 C13.9345612,2.27268712 13.4711313,1.80114927 12.8784018,1.63941818 C11.6886755,1.31467583 11.8320572,1.39959531 10.9602455,0.512421383 C10.52626,0.0707547079 9.89341783,-0.102071382 9.30068835,0.0596596996 C8.11138881,0.383975326 8.2773872,0.384402057 7.08595401,0.0596596996 C6.49322453,-0.102071382 5.86038232,0.0703279768 5.42639681,0.512421383 C4.55543866,1.39916858 4.69882031,1.31467583 3.5086673,1.63941818 C2.91593782,1.80114927 2.45250786,2.27268712 2.2937639,2.87608487 C1.97499578,4.08757443 2.05735488,3.9416324 1.18639673,4.8283796 C0.752411213,5.27004627 0.58257224,5.91398348 0.741742936,6.51738124 C1.06051106,7.7275906 1.06093779,7.55860509 0.741742936,8.77137484 C0.582998971,9.3747726 0.752411213,10.0187098 1.18639673,10.4608032 C2.05735488,11.3475504 1.97456905,11.2011816 2.2937639,12.4130979 C2.45250786,13.0164957 2.91593782,13.4880335 3.5086673,13.6497646 C4.46369148,13.9100706 4.53495557,13.8691044 5.16353046,14.509201 C5.72809569,15.0840078 6.60758846,15.18685 7.28609089,14.7575585 C7.83995945,14.4059344 8.54710964,14.4059344 9.1009782,14.7575585 C9.7790539,15.18685 10.6585467,15.0840078 11.2231119,14.509201 Z" id="Icon-Path"></path>
                        <path d="M8.19332118,3.59059969 C10.3226289,3.59059969 12.0489621,5.34498953 12.0489621,7.50910428 C12.0489621,9.67321904 10.3226289,11.4276089 8.19332118,11.4276089 C6.06401346,11.4276089 4.3376803,9.67321904 4.3376803,7.50910428 C4.3376803,5.34498953 6.06401346,3.59059969 8.19332118,3.59059969 Z" id="Icon-Path"></path>
                    </g>
                </g>
            </g>
        </g>
    </g>
</svg>