<?xml version="1.0" encoding="UTF-8"?>
<svg width="18px" height="18px" viewBox="0 0 18 18" version="1.1" xmlns="http://www.w3.org/2000/svg" xmlns:xlink="http://www.w3.org/1999/xlink">
    <title>eva-alert-circle-outline</title>
    <defs>
        <filter id="filter-1">
            <feColorMatrix in="SourceGraphic" type="matrix" values="0 0 0 0 0.113725 0 0 0 0 0.113725 0 0 0 0 0.113725 0 0 0 1.000000 0"></feColorMatrix>
        </filter>
    </defs>
    <g id="Symbols" stroke="none" stroke-width="1" fill="none" fill-rule="evenodd">
        <g id="eva-alert-circle-outline" filter="url(#filter-1)">
            <g transform="translate(-1.000000, -1.000000)">
                <g id="Icon" fill="#000000" fill-rule="nonzero">
                    <g id="Icon-Group" transform="translate(1.666667, 1.666667)">
                        <path d="M8.33333333,-3.70074342e-16 C3.73096042,-3.70074342e-16 1.48029737e-15,3.73096042 1.48029737e-15,8.33333333 C1.48029737e-15,12.9357062 3.73096042,16.6666667 8.33333333,16.6666667 C12.9357062,16.6666667 16.6666667,12.9357062 16.6666667,8.33333333 C16.6666667,6.12319592 15.788693,4.00357998 14.2258898,2.44077682 C12.6630867,0.87797367 10.5434707,-3.70074342e-16 8.33333333,-3.70074342e-16 Z M8.33333333,15 C4.651435,15 1.66666667,12.0152317 1.66666667,8.33333333 C1.66666667,4.651435 4.651435,1.66666667 8.33333333,1.66666667 C12.0152317,1.66666667 15,4.651435 15,8.33333333 C15,10.1014433 14.2976211,11.797136 13.0473785,13.0473785 C11.797136,14.2976211 10.1014433,15 8.33333333,15 Z" id="Icon-Shape"></path>
                        <circle id="Icon-Oval" cx="8.33333333" cy="11.6666667" r="1"></circle>
                        <path d="M8.33333333,4.16666667 C7.87309604,4.16666667 7.5,4.53976271 7.5,5 L7.5,9.16666667 C7.5,9.62690396 7.87309604,10 8.33333333,10 C8.79357062,10 9.16666667,9.62690396 9.16666667,9.16666667 L9.16666667,5 C9.16666667,4.53976271 8.79357062,4.16666667 8.33333333,4.16666667 Z" id="Icon-Path"></path>
                    </g>
                </g>
                <rect id="ViewBox" fill-rule="nonzero" x="0" y="0" width="20" height="20"></rect>
            </g>
        </g>
    </g>
</svg>