<?xml version="1.0" encoding="UTF-8"?>
<svg width="32px" height="32px" viewBox="0 0 32 32" version="1.1" xmlns="http://www.w3.org/2000/svg" xmlns:xlink="http://www.w3.org/1999/xlink">
    <title>fa-regular:dot-circle copy</title>
    <defs>
        <filter id="filter-1">
            <feColorMatrix in="SourceGraphic" type="matrix" values="0 0 0 0 0.113725 0 0 0 0 0.560784 0 0 0 0 0.454902 0 0 0 1.000000 0"></feColorMatrix>
        </filter>
    </defs>
    <g id="Symbols" stroke="none" stroke-width="1" fill="none" fill-rule="evenodd">
        <g id="fa-regular:dot-circle-copy">
            <g filter="url(#filter-1)" id="Icon">
                <g>
                    <path d="M16,3.5 C22.90825,3.5 28.5,9.0906875 28.5,16 C28.5,22.90825 22.9093125,28.5 16,28.5 C9.09175,28.5 3.5,22.9093125 3.5,16 C3.5,9.09175 9.0906875,3.5 16,3.5 M16,0.5 C7.4395625,0.5 0.5,7.4395625 0.5,16 C0.5,24.5604375 7.4395625,31.5 16,31.5 C24.5604375,31.5 31.5,24.5604375 31.5,16 C31.5,7.4395625 24.5604375,0.5 16,0.5 Z M16,11 C13.2385625,11 11,13.2385625 11,16 C11,18.7614375 13.2385625,21 16,21 C18.7614375,21 21,18.7614375 21,16 C21,13.2385625 18.7614375,11 16,11 Z" id="Icon-Shape" fill="#000000" fill-rule="nonzero"></path>
                </g>
            </g>
            <rect id="ViewBox" fill-rule="nonzero" x="0" y="0" width="32" height="32"></rect>
        </g>
    </g>
</svg>