<?xml version="1.0" encoding="UTF-8"?>
<svg width="14px" height="14px" viewBox="0 0 14 14" version="1.1" xmlns="http://www.w3.org/2000/svg" xmlns:xlink="http://www.w3.org/1999/xlink">
    <title>ant-design:info-circle-outlined</title>
    <defs>
        <filter id="filter-1">
            <feColorMatrix in="SourceGraphic" type="matrix" values="0 0 0 0 0.803922 0 0 0 0 0.345098 0 0 0 0 0.345098 0 0 0 1.000000 0"></feColorMatrix>
        </filter>
    </defs>
    <g id="Symbols" stroke="none" stroke-width="1" fill="none" fill-rule="evenodd">
        <g id="ant-design:info-circle-outlined">
            <g filter="url(#filter-1)" id="Icon">
                <g>
                    <path d="M7,0.875 C3.61757813,0.875 0.875,3.61757813 0.875,7 C0.875,10.3824219 3.61757813,13.125 7,13.125 C10.3824219,13.125 13.125,10.3824219 13.125,7 C13.125,3.61757813 10.3824219,0.875 7,0.875 Z M7,12.0859375 C4.19179688,12.0859375 1.9140625,9.80820312 1.9140625,7 C1.9140625,4.19179688 4.19179688,1.9140625 7,1.9140625 C9.80820312,1.9140625 12.0859375,4.19179688 12.0859375,7 C12.0859375,9.80820312 9.80820312,12.0859375 7,12.0859375 Z" id="Icon-Shape" fill="#6C6C6C" fill-rule="nonzero"></path>
                    <path d="M6.34375,4.59375 C6.34375,4.95618687 6.63756313,5.25 7,5.25 C7.36243687,5.25 7.65625,4.95618687 7.65625,4.59375 C7.65625,4.23131313 7.36243687,3.9375 7,3.9375 C6.63756313,3.9375 6.34375,4.23131313 6.34375,4.59375 Z M7.328125,6.125 L6.671875,6.125 C6.61171875,6.125 6.5625,6.17421875 6.5625,6.234375 L6.5625,9.953125 C6.5625,10.0132813 6.61171875,10.0625 6.671875,10.0625 L7.328125,10.0625 C7.38828125,10.0625 7.4375,10.0132813 7.4375,9.953125 L7.4375,6.234375 C7.4375,6.17421875 7.38828125,6.125 7.328125,6.125 Z" id="Icon-Shape" fill="#6C6C6C" fill-rule="nonzero"></path>
                </g>
            </g>
            <rect id="ViewBox" fill-rule="nonzero" x="0" y="0" width="14" height="14"></rect>
        </g>
    </g>
</svg>