<?xml version="1.0" encoding="UTF-8"?>
<svg width="18px" height="18px" viewBox="0 0 18 18" version="1.1" xmlns="http://www.w3.org/2000/svg" xmlns:xlink="http://www.w3.org/1999/xlink">
    <title>icon/alert/red/solid</title>
    <g id="Components" stroke="none" stroke-width="1" fill="none" fill-rule="evenodd">
        <g id="12-Icons" transform="translate(-605.000000, -1059.000000)" fill-rule="nonzero">
            <g id="Group" transform="translate(605.000000, 1059.000000)">
                <g id="jam-alert-f" transform="translate(-1.000000, -1.000000)">
                    <g id="Icon" transform="translate(0.500000, 0.750000)" fill="#CD5858">
                        <path d="M9.5,18.25 C4.5293,18.25 0.5,14.2207 0.5,9.25 C0.5,4.2802 4.5293,0.25 9.5,0.25 C14.4707,0.25 18.5,4.2802 18.5,9.25 C18.5,14.2207 14.4707,18.25 9.5,18.25 Z M9.5,5.25 C8.94771525,5.25 8.5,5.63375593 8.5,6.10714286 L8.5,10.3928571 C8.5,10.8662441 8.94771525,11.25 9.5,11.25 C10.0522847,11.25 10.5,10.8662441 10.5,10.3928571 L10.5,6.10714286 C10.5,5.63375593 10.0522847,5.25 9.5,5.25 Z M9.5,14.25 C10.0522847,14.25 10.5,13.8022847 10.5,13.25 C10.5,12.6977153 10.0522847,12.25 9.5,12.25 C8.94771525,12.25 8.5,12.6977153 8.5,13.25 C8.5,13.8022847 8.94771525,14.25 9.5,14.25 Z" id="Icon-Shape"></path>
                    </g>
                    <rect id="ViewBox" x="1" y="1" width="18" height="18"></rect>
                </g>
            </g>
        </g>
    </g>
</svg>