<?xml version="1.0" encoding="UTF-8"?>
<svg width="52px" height="52px" viewBox="0 0 52 52" version="1.1" xmlns="http://www.w3.org/2000/svg" xmlns:xlink="http://www.w3.org/1999/xlink">
    <title>Icon Group</title>
    <g id="Symbols" stroke="none" stroke-width="1" fill="none" fill-rule="evenodd">
        <g id="icon/arrow/large" fill-rule="nonzero">
            <g id="Icon-Group">
                <path d="M52,26 C52,40.3594035 40.3594035,52 26,52 C11.6405965,52 0,40.3594035 0,26 C0,11.6405965 11.6405965,0 26,0 C40.3594035,0 52,11.6405965 52,26 Z" id="Icon-Shape" fill="$icon-color"></path>
                <path d="M24.8495,34.5995 C24.2140964,35.2349036 24.2140964,36.2650964 24.8495,36.9005 C25.4849036,37.5359036 26.5150964,37.5359036 27.1505,36.9005 L36.9005,27.1505 C37.2061355,26.8456361 37.3779048,26.4316886 37.3779048,26 C37.3779048,25.5683114 37.2061355,25.1543639 36.9005,24.8495 L27.1505,15.0995 C26.7394659,14.6884659 26.1403707,14.5279388 25.5788878,14.6783878 C25.0174048,14.8288367 24.5788367,15.2674048 24.4283878,15.8288878 C24.2779388,16.3903707 24.4384659,16.9894659 24.8495,17.4005 L31.82725,24.375 L16.25,24.375 C15.3525373,24.375 14.625,25.1025373 14.625,26 C14.625,26.8974627 15.3525373,27.625 16.25,27.625 L31.82725,27.625 L24.8495,34.5995 L24.8495,34.5995 Z" id="Icon-Path" fill="#FFFFFF"></path>
            </g>
        </g>
    </g>
</svg>