<?xml version="1.0" encoding="UTF-8"?>
<svg width="23px" height="22px" viewBox="0 0 23 22" version="1.1" xmlns="http://www.w3.org/2000/svg" xmlns:xlink="http://www.w3.org/1999/xlink">
    <title>Group 18 Copy</title>
    <g id="Symbols" stroke="none" stroke-width="1" fill="none" fill-rule="evenodd">
        <g id="Group-17" transform="translate(1.000000, 1.000000)" stroke="$icon-color">
            <path d="M8.23529412,20 C9.21009772,20 10,19.2097288 10,18.2352941 C10,17.2608594 9.21009772,16.4705882 8.23529412,16.4705882 C7.26049052,16.4705882 6.47058824,17.2608594 6.47058824,18.2352941 C6.47058824,19.2097288 7.26049052,20 8.23529412,20 L8.23529412,20 Z" id="Stroke-224" stroke-width="1.75"></path>
            <path d="M15.2941176,20 C16.2689212,20 17.0588235,19.2097288 17.0588235,18.2352941 C17.0588235,17.2608594 16.2689212,16.4705882 15.2941176,16.4705882 C14.319314,16.4705882 13.5294118,17.2608594 13.5294118,18.2352941 C13.5294118,19.2097288 14.319314,20 15.2941176,20 L15.2941176,20 Z" id="Stroke-226" stroke-width="1.75"></path>
            <path d="M3.85759997,2.94117647 L20.2598215,2.94117647 C20.5001318,2.94117647 20.6404286,2.97368421 20.5700487,3.19891641 L18.0701731,11.2752322 C18.0011822,11.4962848 17.8127308,11.7647059 17.6478936,11.7647059 L6.4695278,11.7647059 C6.30515368,11.7647059 6.11762829,11.4289474 6.04724838,11.2037152 L3.54737277,3.27879257 C3.47791891,3.05773994 3.61590057,2.94117647 3.85759997,2.94117647 L3.85759997,2.94117647 Z" id="Stroke-228" stroke-width="1.75"></path>
            <line x1="3.52941176" y1="2.94117647" x2="2.94117647" y2="0.588235294" id="Stroke-230" stroke-width="1.75" stroke-linecap="round"></line>
            <path d="M6.47058824,11.7647059 C6.30772179,11.7647059 6.12138341,11.9503771 6.05144664,12.1882684 L4.70588235,15.8823529" id="Stroke-232" stroke-width="1.75" stroke-linecap="round"></path>
            <line x1="-1.12190958e-13" y1="-2.81646052e-14" x2="2.35294118" y2="-2.81646052e-14" id="Stroke-234" stroke-width="1.5" stroke-linecap="round"></line>
            <line x1="4.70588235" y1="15.8823529" x2="18.2352941" y2="15.8823529" id="Stroke-236" stroke-width="1.5" stroke-linecap="round"></line>
        </g>
    </g>
</svg>