<?xml version="1.0" encoding="UTF-8"?>
<svg width="20px" height="20px" viewBox="0 0 20 20" version="1.1" xmlns="http://www.w3.org/2000/svg" xmlns:xlink="http://www.w3.org/1999/xlink">
    <title>Icon</title>
    <g id="Symbols" stroke="none" stroke-width="1" fill="none" fill-rule="evenodd">
        <g id="icon/pswd/hide" transform="translate(-2.000000, -2.000000)" fill="#1D1D1D" fill-rule="nonzero">
            <g id="Icon">
                <path d="M12,19 C12.946,19 13.81,18.897 14.598,18.719 L12.841,16.962 C12.568,16.983 12.291,17 12,17 C6.649,17 4.576,13.154 4.074,12 C4.45094663,11.158809 4.96004706,10.3833423 5.582,9.703 L4.184,8.305 C2.646,9.972 2.063,11.651 2.052,11.684 C1.9830203,11.8893623 1.9830203,12.1116377 2.052,12.317 C2.073,12.383 4.367,19 12,19 Z M12,5 C10.163,5 8.654,5.396 7.396,5.981 L3.707,2.293 L2.293,3.707 L20.293,21.707 L21.707,20.293 L18.388,16.974 C21.002,15.023 21.935,12.359 21.949,12.317 C22.0179797,12.1116377 22.0179797,11.8893623 21.949,11.684 C21.927,11.617 19.633,5 12,5 Z M16.972,15.558 L14.692,13.278 C14.882,12.888 15,12.459 15,12 C15,10.359 13.641,9 12,9 C11.541,9 11.112,9.118 10.723,9.309 L8.915,7.501 C9.90751924,7.16041228 10.9507081,6.99099976 12,7 C17.351,7 19.424,10.846 19.926,12 C19.624,12.692 18.76,14.342 16.972,15.558 Z" id="Icon-Shape"></path>
            </g>
        </g>
    </g>
</svg>