<?xml version="1.0" encoding="UTF-8"?>
<svg width="22px" height="14px" viewBox="0 0 22 14" version="1.1" xmlns="http://www.w3.org/2000/svg" xmlns:xlink="http://www.w3.org/1999/xlink">
    <title>Icon</title>
    <defs>
        <filter id="filter-1">
            <feColorMatrix in="SourceGraphic" type="matrix" values="0 0 0 0 0.113725 0 0 0 0 0.113725 0 0 0 0 0.113725 0 0 0 1.000000 0"></feColorMatrix>
        </filter>
    </defs>
    <g id="Symbols" stroke="none" stroke-width="1" fill="none" fill-rule="evenodd">
        <g id="Icon" transform="translate(-1.000000, -5.000000)" filter="url(#filter-1)">
            <g transform="translate(1.000000, 5.000000)">
                <path d="M11,4 C9.34768455,4.01090673 8.01090673,5.34768455 8,7 C8,8.642 9.358,10 11,10 C12.641,10 14,8.642 14,7 C14,5.359 12.641,4 11,4 L11,4 Z" id="Icon-Path" fill="#1D1D1D" fill-rule="nonzero"></path>
                <path d="M11,0 C3.367,0 1.073,6.617 1.052,6.684 L0.946,7 L1.051,7.316 C1.073,7.383 3.367,14 11,14 C18.633,14 20.927,7.383 20.948,7.316 L21.054,7 L20.949,6.684 C20.927,6.617 18.633,0 11,0 Z M11,12 C5.649,12 3.576,8.154 3.074,7 C3.578,5.842 5.652,2 11,2 C16.351,2 18.424,5.846 18.926,7 C18.422,8.158 16.348,12 11,12 Z" id="Icon-Shape" fill="#1D1D1D" fill-rule="nonzero"></path>
            </g>
        </g>
    </g>
</svg>