<?xml version="1.0" encoding="UTF-8"?>
<svg width="20px" height="20px" viewBox="0 0 20 20" version="1.1" xmlns="http://www.w3.org/2000/svg" xmlns:xlink="http://www.w3.org/1999/xlink">
    <title>Icon</title>
    <g id="Symbols" stroke="none" stroke-width="1" fill="none" fill-rule="evenodd" stroke-linecap="round" stroke-linejoin="round">
        <g id="Icon" transform="translate(1.000000, 1.000000)">
            <g>
                <path d="M3.85714286,14.5714286 L2.41071429,14.5714286 L0.482142857,14.5714286 C0.245571429,14.5714286 0,14.3931429 0,14.1732857 L0,5.81614286 C0,4.49742857 1.20471429,3.42857143 2.625,3.42857143 L15.4821429,3.42857143 C16.9024286,3.42857143 18,4.49742857 18,5.81614286 L18,14.1732857 C18,14.3931429 17.8615714,14.5714286 17.625,14.5714286 L15.8035714,14.5714286 L14.1428571,14.5714286" id="Stroke-27" stroke="$icon-color" stroke-width="1.25"></path>
                <path d="M13.7142857,17.5714286 C13.7142857,17.808 13.5222857,18 13.2857143,18 L4.71428571,18 C4.47771429,18 4.28571429,17.808 4.28571429,17.5714286 L4.28571429,10.7142857 C4.28571429,10.4777143 4.47771429,10.2857143 4.71428571,10.2857143 L13.2857143,10.2857143 C13.5222857,10.2857143 13.7142857,10.4777143 13.7142857,10.7142857 L13.7142857,17.5714286 L13.7142857,17.5714286 Z" id="Stroke-29" stroke="$icon-color" stroke-width="1.25"></path>
                <path d="M3.42857143,3.42857143 L3.42857143,0.428571429 C3.42857143,0.192 3.67414286,0 3.91071429,0 L14.1964286,0 C14.433,0 14.5714286,0.192 14.5714286,0.428571429 L14.5714286,3.42857143" id="Stroke-31" stroke="$icon-color" stroke-width="1.25"></path>
            </g>
        </g>
    </g>
</svg>